<?xml version="1.0" encoding="iso-8859-1"?>
<!-- Generator: Adobe Illustrator 19.0.0, SVG Export Plug-In . SVG Version: 6.00 Build 0)  -->
<svg version="1.1" id="Layer_1" xmlns="http://www.w3.org/2000/svg" xmlns:xlink="http://www.w3.org/1999/xlink" x="0px" y="0px"
	 viewBox="0 0 511.999 511.999" style="enable-background:new 0 0 511.999 511.999;" xml:space="preserve">
<g>
	<g>
		<path d="M324.068,307.048c-9.383,0-17.016,7.633-17.016,17.016s7.633,17.016,17.016,17.016s17.016-7.633,17.016-17.016
			S333.451,307.048,324.068,307.048z"/>
	</g>
</g>
<g>
	<g>
		<path d="M187.939,170.918c-9.383,0-17.016,7.633-17.016,17.016s7.633,17.016,17.016,17.016c9.383,0,17.016-7.633,17.016-17.016
			S197.321,170.918,187.939,170.918z"/>
	</g>
</g>
<g>
	<g>
		<path d="M256.004,0.003C114.844,0.003,0.007,114.84,0.007,255.999c0,52.101,15.443,101.821,44.767,144.494l-42.896,85.79
			c-3.224,6.437-2.238,14.18,2.492,19.62c3.434,3.944,8.353,6.093,13.404,6.093c1.906,0,3.822-0.299,5.683-0.93l102.507-34.62
			c39.317,23.286,84.095,35.55,130.037,35.55c141.16,0,255.997-114.837,255.997-255.997S397.162,0.003,256.004,0.003z
			 M136.89,187.935c0-28.149,22.899-51.049,51.049-51.049c28.149,0,51.049,22.899,51.049,51.049s-22.899,51.049-51.049,51.049
			C159.789,238.983,136.89,216.084,136.89,187.935z M195.838,340.239c-3.324,3.324-7.678,4.986-12.031,4.986
			c-4.353,0-8.708-1.662-12.03-4.986c-6.646-6.647-6.646-17.416,0-24.062l144.383-144.394c6.647-6.647,17.416-6.647,24.062,0
			c6.647,6.646,6.647,17.416,0,24.062L195.838,340.239z M324.068,375.113c-28.149,0-51.049-22.899-51.049-51.049
			s22.899-51.049,51.049-51.049s51.049,22.899,51.049,51.049S352.218,375.113,324.068,375.113z"/>
	</g>
</g>
<g>
</g>
<g>
</g>
<g>
</g>
<g>
</g>
<g>
</g>
<g>
</g>
<g>
</g>
<g>
</g>
<g>
</g>
<g>
</g>
<g>
</g>
<g>
</g>
<g>
</g>
<g>
</g>
<g>
</g>
</svg>
